<?xml version="1.0" standalone="no"?>
<!DOCTYPE svg PUBLIC "-//W3C//DTD SVG 20010904//EN"
 "http://www.w3.org/TR/2001/REC-SVG-20010904/DTD/svg10.dtd">
<svg version="1.0" xmlns="http://www.w3.org/2000/svg"
 width="120.000000pt" height="120.000000pt" viewBox="0 0 120.000000 120.000000"
 preserveAspectRatio="xMidYMid meet">

<g transform="translate(0.000000,120.000000) scale(0.100000,-0.100000)"
fill="#000000" stroke="none">
<path d="M381 434 c-27 -35 -26 -66 2 -100 49 -57 147 -13 133 60 -13 66 -96
90 -135 40z"/>
<path d="M701 434 c-27 -35 -26 -66 2 -100 49 -57 147 -13 133 60 -13 66 -96
90 -135 40z"/>
<path d="M529 231 c-38 -38 -39 -87 -4 -129 47 -55 130 -44 161 21 48 100 -78
186 -157 108z"/>
</g>
</svg>
